<?xml version="1.0" standalone="no"?>
<!DOCTYPE svg PUBLIC "-//W3C//DTD SVG 20010904//EN"
 "http://www.w3.org/TR/2001/REC-SVG-20010904/DTD/svg10.dtd">
<svg version="1.0" xmlns="http://www.w3.org/2000/svg"
 width="120.000000pt" height="120.000000pt" viewBox="0 0 120.000000 120.000000"
 preserveAspectRatio="xMidYMid meet">
<metadata>
Created by potrace 1.14, written by Peter Selinger 2001-2017
</metadata>
<g transform="translate(0.000000,120.000000) scale(0.100000,-0.100000)"
fill="#000000" stroke="none">
<path d="M535 1115 c-173 -40 -281 -183 -288 -379 -1 -40 -5 -50 -24 -57 -13
-5 -30 -6 -38 -3 -13 5 -15 -9 -16 -92 -2 -239 2 -508 7 -513 8 -8 841 -7 850
1 4 4 7 140 8 303 l1 295 -40 8 -39 8 -2 53 c-3 79 -13 120 -42 181 -49 102
-146 177 -252 195 -66 12 -70 12 -125 0z m143 -126 c64 -21 133 -102 148 -173
10 -43 11 -127 2 -132 -5 -3 -29 -5 -53 -4 -25 0 -51 1 -57 1 -7 -1 -78 -1
-158 -1 -80 0 -155 0 -167 0 -25 0 -26 4 -24 65 3 77 29 144 76 191 25 24 51
44 60 44 8 0 15 5 15 12 0 6 3 9 6 6 3 -3 17 -3 32 1 32 9 74 5 120 -10z"/>
</g>
</svg>
